<svg width="10" height="10" viewBox="0 0 10 10" fill="none" xmlns="http://www.w3.org/2000/svg">
<path d="M8.99975 6.98954V8.19386C9.00021 8.30566 8.97726 8.41633 8.93238 8.51876C8.8875 8.6212 8.82168 8.71316 8.73913 8.78874C8.65659 8.86432 8.55913 8.92187 8.45301 8.95768C8.34689 8.9935 8.23444 9.0068 8.12287 8.99674C6.88512 8.86252 5.69617 8.4404 4.65156 7.76432C3.67969 7.14797 2.85571 6.32562 2.23813 5.35567C1.55834 4.3084 1.1353 3.11603 1.00326 1.87518C0.993213 1.76417 1.00643 1.65228 1.04208 1.54665C1.07773 1.44102 1.13503 1.34395 1.21032 1.26163C1.28562 1.1793 1.37727 1.11353 1.47943 1.06849C1.58159 1.02346 1.69203 1.00014 1.80372 1.00004H3.01043C3.20564 0.998121 3.39489 1.06711 3.5429 1.19415C3.69091 1.32119 3.78759 1.4976 3.81491 1.69052C3.86584 2.07593 3.9603 2.45435 4.09647 2.81857C4.15059 2.96225 4.1623 3.11841 4.13022 3.26853C4.09814 3.41866 4.02361 3.55646 3.91547 3.66561L3.40462 4.17544C3.97723 5.18046 4.81103 6.01261 5.81805 6.58408L6.32889 6.07425C6.43826 5.96632 6.57633 5.89194 6.72675 5.85992C6.87718 5.8279 7.03364 5.83959 7.17761 5.8936C7.54255 6.02951 7.92173 6.12378 8.3079 6.17461C8.5033 6.20212 8.68174 6.30035 8.80931 6.4506C8.93687 6.60085 9.00465 6.79266 8.99975 6.98954Z" stroke="white" stroke-linecap="round" stroke-linejoin="round"/>
</svg>
